<svg width="50" height="50" viewBox="0 0 50 50" fill="none" xmlns="http://www.w3.org/2000/svg">
<g filter="url(#filter0_d_4627_393119)">
<rect x="5" y="5" width="40" height="40" rx="20" fill="white"/>
<path d="M25 25.8334C25.4602 25.8334 25.8333 25.4603 25.8333 25.0001C25.8333 24.5398 25.4602 24.1667 25 24.1667C24.5397 24.1667 24.1666 24.5398 24.1666 25.0001C24.1666 25.4603 24.5397 25.8334 25 25.8334Z" stroke="#98A2B3" stroke-width="1.66667" stroke-linecap="round" stroke-linejoin="round"/>
<path d="M30.8333 25.8334C31.2935 25.8334 31.6666 25.4603 31.6666 25.0001C31.6666 24.5398 31.2935 24.1667 30.8333 24.1667C30.3731 24.1667 30 24.5398 30 25.0001C30 25.4603 30.3731 25.8334 30.8333 25.8334Z" stroke="#98A2B3" stroke-width="1.66667" stroke-linecap="round" stroke-linejoin="round"/>
<path d="M19.1666 25.8334C19.6269 25.8334 20 25.4603 20 25.0001C20 24.5398 19.6269 24.1667 19.1666 24.1667C18.7064 24.1667 18.3333 24.5398 18.3333 25.0001C18.3333 25.4603 18.7064 25.8334 19.1666 25.8334Z" stroke="#98A2B3" stroke-width="1.66667" stroke-linecap="round" stroke-linejoin="round"/>
<rect x="5" y="5" width="40" height="40" rx="20" stroke="#D0D5DD" stroke-linecap="round" stroke-linejoin="round" stroke-dasharray="1 3"/>
</g>
<defs>
<filter id="filter0_d_4627_393119" x="0.5" y="0.5" width="49" height="49" filterUnits="userSpaceOnUse" color-interpolation-filters="sRGB">
<feFlood flood-opacity="0" result="BackgroundImageFix"/>
<feColorMatrix in="SourceAlpha" type="matrix" values="0 0 0 0 0 0 0 0 0 0 0 0 0 0 0 0 0 0 127 0" result="hardAlpha"/>
<feMorphology radius="4" operator="dilate" in="SourceAlpha" result="effect1_dropShadow_4627_393119"/>
<feOffset/>
<feColorMatrix type="matrix" values="0 0 0 0 0.949765 0 0 0 0 0.955804 0 0 0 0 0.967882 0 0 0 1 0"/>
<feBlend mode="normal" in2="BackgroundImageFix" result="effect1_dropShadow_4627_393119"/>
<feBlend mode="normal" in="SourceGraphic" in2="effect1_dropShadow_4627_393119" result="shape"/>
</filter>
</defs>
</svg>
